<svg width="16" height="16" viewBox="0 0 16 16" fill="none" xmlns="http://www.w3.org/2000/svg">
<g id="fad:filter-notch">
<path id="Vector" fill-rule="evenodd" clip-rule="evenodd" d="M1.56836 4.85191C1.56836 4.91824 1.59465 4.98186 1.64148 5.02884C1.6883 5.07582 1.75184 5.10232 1.81817 5.10253H2.88042C3.29492 5.10253 3.75086 5.41566 3.89917 5.80266L7.19442 11.1296C7.63911 12.2898 8.36273 12.2903 8.81048 11.1312L12.1189 5.80266C12.2683 5.41597 12.7247 5.10253 13.1399 5.10253H14.1705C14.2369 5.10237 14.3005 5.07589 14.3474 5.0289C14.3942 4.98192 14.4205 4.91827 14.4205 4.85191V4.30141C14.4206 4.26856 14.4142 4.23602 14.4017 4.20565C14.3892 4.17528 14.3708 4.14767 14.3477 4.1244C14.3245 4.10113 14.2969 4.08266 14.2666 4.07004C14.2363 4.05741 14.2038 4.05089 14.1709 4.05084H12.7017C12.1495 4.05084 11.5425 4.46972 11.346 4.98597L8.39936 9.60172C8.17855 10.1822 7.8233 10.1806 7.60598 9.59853L4.69955 4.98797C4.5063 4.47041 3.90205 4.05078 3.34955 4.05078H1.81892C1.75247 4.05081 1.68876 4.07723 1.64178 4.12423C1.59481 4.17123 1.56842 4.23496 1.56842 4.30141L1.56836 4.85191Z" fill="black"/>
</g>
</svg>
