<svg width="40" height="40" viewBox="0 0 40 40" fill="none" xmlns="http://www.w3.org/2000/svg">
<g id="eos-icons:pull-request">
<path id="Vector" d="M10 28.6397V14.693C11.112 14.2998 12.0493 13.5262 12.6461 12.5089C13.2429 11.4915 13.4608 10.2959 13.2613 9.13345C13.0619 7.97096 12.4579 6.9164 11.5561 6.15617C10.6543 5.39593 9.51282 4.97896 8.33334 4.97896C7.15386 4.97896 6.01235 5.39593 5.11057 6.15617C4.20879 6.9164 3.6048 7.97096 3.40535 9.13345C3.20589 10.2959 3.42382 11.4915 4.02062 12.5089C4.61741 13.5262 5.55465 14.2998 6.66667 14.693V28.6397C5.55465 29.0328 4.61741 29.8065 4.02062 30.8238C3.42382 31.8412 3.20589 33.0367 3.40535 34.1992C3.6048 35.3617 4.20879 36.4163 5.11057 37.1765C6.01235 37.9368 7.15386 38.3537 8.33334 38.3537C9.51282 38.3537 10.6543 37.9368 11.5561 37.1765C12.4579 36.4163 13.0619 35.3617 13.2613 34.1992C13.4608 33.0367 13.2429 31.8412 12.6461 30.8238C12.0493 29.8065 11.112 29.0328 10 28.6397ZM33.3333 28.6397V11.6663C33.3333 10.7823 32.9821 9.93444 32.357 9.30932C31.7319 8.6842 30.8841 8.33301 30 8.33301H21.38L24.0233 5.68967L21.6667 3.33301L17.3567 7.64301L15 9.99967L17.3567 12.3563L21.6667 16.6663L24.0233 14.3097L21.38 11.6663H30V28.6397C28.888 29.0328 27.9507 29.8065 27.354 30.8238C26.7572 31.8412 26.5392 33.0367 26.7387 34.1992C26.9381 35.3617 27.5421 36.4163 28.4439 37.1765C29.3457 37.9368 30.4872 38.3537 31.6667 38.3537C32.8461 38.3537 33.9877 37.9368 34.8894 37.1765C35.7912 36.4163 36.3952 35.3617 36.5947 34.1992C36.7941 33.0367 36.5762 31.8412 35.9794 30.8238C35.3826 29.8065 34.4454 29.0328 33.3333 28.6397Z" fill="white"/>
</g>
</svg>
