<svg width="27" height="35" viewBox="0 0 27 35" fill="none" xmlns="http://www.w3.org/2000/svg">
<path d="M13.3333 26.6667C14.2174 26.6667 15.0652 26.3155 15.6904 25.6904C16.3155 25.0652 16.6667 24.2174 16.6667 23.3333C16.6667 22.4493 16.3155 21.6014 15.6904 20.9763C15.0652 20.3512 14.2174 20 13.3333 20C12.4493 20 11.6014 20.3512 10.9763 20.9763C10.3512 21.6014 10 22.4493 10 23.3333C10 24.2174 10.3512 25.0652 10.9763 25.6904C11.6014 26.3155 12.4493 26.6667 13.3333 26.6667ZM23.3333 11.6667C24.2174 11.6667 25.0652 12.0179 25.6904 12.643C26.3155 13.2681 26.6667 14.1159 26.6667 15V31.6667C26.6667 32.5507 26.3155 33.3986 25.6904 34.0237C25.0652 34.6488 24.2174 35 23.3333 35H3.33333C2.44928 35 1.60143 34.6488 0.976311 34.0237C0.351189 33.3986 0 32.5507 0 31.6667V15C0 14.1159 0.351189 13.2681 0.976311 12.643C1.60143 12.0179 2.44928 11.6667 3.33333 11.6667H5V8.33333C5 6.1232 5.87797 4.00358 7.44078 2.44078C9.00358 0.877974 11.1232 0 13.3333 0C14.4277 0 15.5113 0.215548 16.5224 0.634337C17.5334 1.05313 18.4521 1.66696 19.2259 2.44078C19.9997 3.2146 20.6135 4.13326 21.0323 5.1443C21.4511 6.15535 21.6667 7.23898 21.6667 8.33333V11.6667H23.3333ZM13.3333 3.33333C12.0073 3.33333 10.7355 3.86012 9.7978 4.7978C8.86012 5.73548 8.33333 7.00725 8.33333 8.33333V11.6667H18.3333V8.33333C18.3333 7.00725 17.8065 5.73548 16.8689 4.7978C15.9312 3.86012 14.6594 3.33333 13.3333 3.33333Z" fill="black" fill-opacity="0.48"/>
</svg>
