<svg width="25" height="25" viewBox="0 0 25 25" fill="none" xmlns="http://www.w3.org/2000/svg">
<path d="M0 23.375V9.25089C0 8.8349 0.102381 8.44112 0.307143 8.06955C0.511905 7.69798 0.794047 7.39194 1.15357 7.15145L10.7696 0.524863C11.2732 0.174955 11.8482 0 12.4946 0C13.1411 0 13.7196 0.174955 14.2304 0.524863L23.8464 7.14982C24.2071 7.39032 24.4893 7.69689 24.6929 8.06955C24.8976 8.44112 25 8.8349 25 9.25089V23.375C25 23.8105 24.822 24.1902 24.4661 24.5141C24.1101 24.838 23.6929 25 23.2143 25H17.1714C16.7619 25 16.419 24.8743 16.1429 24.623C15.8667 24.3706 15.7286 24.0586 15.7286 23.687V15.9376C15.7286 15.566 15.5905 15.2546 15.3143 15.0032C15.0369 14.7508 14.694 14.6246 14.2857 14.6246H10.7143C10.306 14.6246 9.96369 14.7508 9.6875 15.0032C9.41012 15.2546 9.27143 15.566 9.27143 15.9376V23.6887C9.27143 24.0602 9.13333 24.3717 8.85714 24.623C8.58095 24.8743 8.23869 25 7.83036 25H1.78571C1.30714 25 0.889881 24.838 0.533928 24.5141C0.177976 24.1902 0 23.8105 0 23.375Z" fill="black" fill-opacity="0.48"/>
</svg>
