<svg width="40" height="32" viewBox="0 0 40 32" fill="none" xmlns="http://www.w3.org/2000/svg">
<g id="fa6-solid:users-gear" clip-path="url(#clip0_269_26)">
<path id="Vector" d="M9 10C10.3261 10 11.5979 9.47322 12.5355 8.53553C13.4732 7.59785 14 6.32608 14 5C14 3.67392 13.4732 2.40215 12.5355 1.46447C11.5979 0.526784 10.3261 0 9 0C7.67392 0 6.40215 0.526784 5.46447 1.46447C4.52678 2.40215 4 3.67392 4 5C4 6.32608 4.52678 7.59785 5.46447 8.53553C6.40215 9.47322 7.67392 10 9 10ZM32 10C33.3261 10 34.5979 9.47322 35.5355 8.53553C36.4732 7.59785 37 6.32608 37 5C37 3.67392 36.4732 2.40215 35.5355 1.46447C34.5979 0.526784 33.3261 0 32 0C30.6739 0 29.4021 0.526784 28.4645 1.46447C27.5268 2.40215 27 3.67392 27 5C27 6.32608 27.5268 7.59785 28.4645 8.53553C29.4021 9.47322 30.6739 10 32 10ZM0 18.6688C0 19.4 0.6 20 1.33125 20H14.7063C13.0437 18.5312 12 16.3875 12 14C12 13.525 12.0437 13.0625 12.1187 12.6062C11.2687 12.2125 10.325 12 9.33125 12H6.6625C2.9875 12 0 14.9875 0 18.6688ZM20 20C21.5 20 22.8688 19.45 23.9188 18.5438C24.075 18.3125 24.2438 18.0875 24.4188 17.875C24.5875 17.6688 24.775 17.4938 24.9813 17.3563C25.625 16.3938 26 15.2437 26 14C26 10.6875 23.3125 8 20 8C16.6875 8 14 10.6875 14 14C14 17.3125 16.6875 20 20 20ZM24.0875 23.7625C23.4438 23.3938 22.9563 22.75 22.7875 22H16.3375C11.7312 22 8 25.7312 8 30.3312C8 31.25 8.74375 32 9.66875 32H28.4562C28.325 31.675 28.2563 31.3188 28.2563 30.975V30.7875C28.175 30.7437 28.0875 30.6937 28.0063 30.6437L27.8438 30.7375C26.7938 31.3438 25.3125 31.2375 24.425 30.1313C24.1437 29.7812 23.8875 29.4125 23.65 29.0312L23.6437 29.0187L23.6375 29.0063L23.4875 28.75L23.4813 28.7375L23.475 28.725C23.2625 28.3375 23.075 27.9375 22.9125 27.5187C22.4 26.1937 23.05 24.8563 24.1 24.25L24.2687 24.1562V23.8687L24.1 23.775L24.0875 23.7625ZM33.3312 12H30.6625C29.6688 12 28.725 12.2188 27.875 12.6062C27.9562 13.0562 27.9937 13.525 27.9937 14C27.9937 15.0875 27.775 16.1187 27.3875 17.0625C27.5438 17.1187 27.6937 17.1875 27.8312 17.2687L27.9937 17.3625C28.075 17.3125 28.1562 17.2625 28.2437 17.2188V17.0312C28.2437 15.8188 29.075 14.5875 30.4813 14.3687C30.975 14.2937 31.4812 14.25 31.9937 14.25C32.5062 14.25 33.0125 14.2875 33.5062 14.3687C34.9125 14.5875 35.7438 15.8188 35.7438 17.0312V17.2188C35.825 17.2625 35.9125 17.3125 35.9938 17.3625L36.1562 17.2687C37.2062 16.6625 38.6875 16.7687 39.575 17.875C39.7188 18.05 39.8563 18.2375 39.9875 18.4188C39.8563 14.85 36.925 12 33.325 12H33.3312ZM39.0375 22.2437C39.4312 22.0187 39.6313 21.55 39.4625 21.1187C39.3313 20.775 39.175 20.4438 39 20.125L38.8563 19.875C38.6625 19.5562 38.45 19.2563 38.2188 18.9688C37.9313 18.6125 37.425 18.55 37.0312 18.7812L36.85 18.8875C36.275 19.2188 35.575 19.1375 35 18.8062C34.425 18.475 33.9938 17.9 33.9938 17.2375V17.025C33.9938 16.5688 33.6875 16.1625 33.2375 16.0938C32.8312 16.0312 32.4188 16 31.9937 16C31.5688 16 31.1562 16.0312 30.75 16.0938C30.3 16.1625 29.9937 16.5688 29.9937 17.025V17.2375C29.9937 17.9 29.5625 18.475 28.9875 18.8062C28.4125 19.1375 27.7125 19.2188 27.1375 18.8875L26.9562 18.7812C26.5625 18.5562 26.0562 18.6187 25.7687 18.9688C25.5375 19.2563 25.325 19.5625 25.1313 19.8813L24.9875 20.125C24.8125 20.4438 24.6562 20.775 24.525 21.1187C24.3625 21.5437 24.5563 22.0125 24.95 22.2375L25.1313 22.3438C25.7063 22.675 25.9875 23.3312 25.9875 23.9937C25.9875 24.6562 25.7063 25.3125 25.1313 25.6437L24.9438 25.75C24.55 25.975 24.35 26.4438 24.5187 26.8687C24.65 27.2125 24.8063 27.5375 24.9813 27.8563L25.1313 28.1125C25.3188 28.4312 25.5312 28.7312 25.7625 29.0187C26.05 29.375 26.5563 29.4375 26.95 29.2062L27.1313 29.1C27.7063 28.7688 28.4062 28.85 28.9813 29.1812C29.5563 29.5125 29.9875 30.0875 29.9875 30.75V30.9625C29.9875 31.4187 30.2937 31.825 30.7437 31.8937C31.15 31.9562 31.5625 31.9875 31.9875 31.9875C32.4125 31.9875 32.825 31.9562 33.2313 31.8937C33.6813 31.825 33.9875 31.4187 33.9875 30.9625V30.75C33.9875 30.0875 34.4188 29.5125 34.9938 29.1812C35.5688 28.85 36.2687 28.7688 36.8438 29.1L37.025 29.2062C37.4188 29.4312 37.925 29.3687 38.2125 29.0187C38.4438 28.7312 38.6562 28.4312 38.8438 28.1125L38.9938 27.85C39.1688 27.5312 39.325 27.2062 39.4562 26.8625C39.6187 26.4375 39.425 25.9688 39.0312 25.7437L38.8438 25.6375C38.2687 25.3063 37.9875 24.65 37.9875 23.9875C37.9875 23.325 38.2687 22.6687 38.8438 22.3375L39.0312 22.2313L39.0375 22.2437ZM29.5 24C29.5 23.337 29.7634 22.7011 30.2322 22.2322C30.7011 21.7634 31.337 21.5 32 21.5C32.663 21.5 33.2989 21.7634 33.7678 22.2322C34.2366 22.7011 34.5 23.337 34.5 24C34.5 24.663 34.2366 25.2989 33.7678 25.7678C33.2989 26.2366 32.663 26.5 32 26.5C31.337 26.5 30.7011 26.2366 30.2322 25.7678C29.7634 25.2989 29.5 24.663 29.5 24Z" fill="#F59E0B"/>
</g>
<defs>
<clipPath id="clip0_269_26">
<rect width="40" height="32" fill="white"/>
</clipPath>
</defs>
</svg>
