<svg width="30" height="30" viewBox="0 0 30 30" fill="none" xmlns="http://www.w3.org/2000/svg">
<path d="M5.625 0C5.12772 0 4.65081 0.197544 4.29917 0.549175C3.94754 0.900806 3.75 1.37772 3.75 1.875V28.125C3.75 28.6223 3.94754 29.0992 4.29917 29.4508C4.65081 29.8025 5.12772 30 5.625 30H11.25V23.4375C11.25 23.1889 11.3488 22.9504 11.5246 22.7746C11.7004 22.5988 11.9389 22.5 12.1875 22.5H17.8125C18.0611 22.5 18.2996 22.5988 18.4754 22.7746C18.6512 22.9504 18.75 23.1889 18.75 23.4375V30H24.375C24.8723 30 25.3492 29.8025 25.7008 29.4508C26.0525 29.0992 26.25 28.6223 26.25 28.125V1.875C26.25 1.37772 26.0525 0.900806 25.7008 0.549175C25.3492 0.197544 24.8723 0 24.375 0L5.625 0ZM7.5 4.6875C7.5 4.43886 7.59877 4.2004 7.77459 4.02459C7.9504 3.84877 8.18886 3.75 8.4375 3.75H10.3125C10.5611 3.75 10.7996 3.84877 10.9754 4.02459C11.1512 4.2004 11.25 4.43886 11.25 4.6875V6.5625C11.25 6.81114 11.1512 7.0496 10.9754 7.22541C10.7996 7.40123 10.5611 7.5 10.3125 7.5H8.4375C8.18886 7.5 7.9504 7.40123 7.77459 7.22541C7.59877 7.0496 7.5 6.81114 7.5 6.5625V4.6875ZM13.125 4.6875C13.125 4.43886 13.2238 4.2004 13.3996 4.02459C13.5754 3.84877 13.8139 3.75 14.0625 3.75H15.9375C16.1861 3.75 16.4246 3.84877 16.6004 4.02459C16.7762 4.2004 16.875 4.43886 16.875 4.6875V6.5625C16.875 6.81114 16.7762 7.0496 16.6004 7.22541C16.4246 7.40123 16.1861 7.5 15.9375 7.5H14.0625C13.8139 7.5 13.5754 7.40123 13.3996 7.22541C13.2238 7.0496 13.125 6.81114 13.125 6.5625V4.6875ZM19.6875 3.75H21.5625C21.8111 3.75 22.0496 3.84877 22.2254 4.02459C22.4012 4.2004 22.5 4.43886 22.5 4.6875V6.5625C22.5 6.81114 22.4012 7.0496 22.2254 7.22541C22.0496 7.40123 21.8111 7.5 21.5625 7.5H19.6875C19.4389 7.5 19.2004 7.40123 19.0246 7.22541C18.8488 7.0496 18.75 6.81114 18.75 6.5625V4.6875C18.75 4.43886 18.8488 4.2004 19.0246 4.02459C19.2004 3.84877 19.4389 3.75 19.6875 3.75ZM7.5 10.3125C7.5 10.0639 7.59877 9.8254 7.77459 9.64959C7.9504 9.47377 8.18886 9.375 8.4375 9.375H10.3125C10.5611 9.375 10.7996 9.47377 10.9754 9.64959C11.1512 9.8254 11.25 10.0639 11.25 10.3125V12.1875C11.25 12.4361 11.1512 12.6746 10.9754 12.8504C10.7996 13.0262 10.5611 13.125 10.3125 13.125H8.4375C8.18886 13.125 7.9504 13.0262 7.77459 12.8504C7.59877 12.6746 7.5 12.4361 7.5 12.1875V10.3125ZM14.0625 9.375H15.9375C16.1861 9.375 16.4246 9.47377 16.6004 9.64959C16.7762 9.8254 16.875 10.0639 16.875 10.3125V12.1875C16.875 12.4361 16.7762 12.6746 16.6004 12.8504C16.4246 13.0262 16.1861 13.125 15.9375 13.125H14.0625C13.8139 13.125 13.5754 13.0262 13.3996 12.8504C13.2238 12.6746 13.125 12.4361 13.125 12.1875V10.3125C13.125 10.0639 13.2238 9.8254 13.3996 9.64959C13.5754 9.47377 13.8139 9.375 14.0625 9.375ZM18.75 10.3125C18.75 10.0639 18.8488 9.8254 19.0246 9.64959C19.2004 9.47377 19.4389 9.375 19.6875 9.375H21.5625C21.8111 9.375 22.0496 9.47377 22.2254 9.64959C22.4012 9.8254 22.5 10.0639 22.5 10.3125V12.1875C22.5 12.4361 22.4012 12.6746 22.2254 12.8504C22.0496 13.0262 21.8111 13.125 21.5625 13.125H19.6875C19.4389 13.125 19.2004 13.0262 19.0246 12.8504C18.8488 12.6746 18.75 12.4361 18.75 12.1875V10.3125ZM8.4375 15H10.3125C10.5611 15 10.7996 15.0988 10.9754 15.2746C11.1512 15.4504 11.25 15.6889 11.25 15.9375V17.8125C11.25 18.0611 11.1512 18.2996 10.9754 18.4754C10.7996 18.6512 10.5611 18.75 10.3125 18.75H8.4375C8.18886 18.75 7.9504 18.6512 7.77459 18.4754C7.59877 18.2996 7.5 18.0611 7.5 17.8125V15.9375C7.5 15.6889 7.59877 15.4504 7.77459 15.2746C7.9504 15.0988 8.18886 15 8.4375 15ZM13.125 15.9375C13.125 15.6889 13.2238 15.4504 13.3996 15.2746C13.5754 15.0988 13.8139 15 14.0625 15H15.9375C16.1861 15 16.4246 15.0988 16.6004 15.2746C16.7762 15.4504 16.875 15.6889 16.875 15.9375V17.8125C16.875 18.0611 16.7762 18.2996 16.6004 18.4754C16.4246 18.6512 16.1861 18.75 15.9375 18.75H14.0625C13.8139 18.75 13.5754 18.6512 13.3996 18.4754C13.2238 18.2996 13.125 18.0611 13.125 17.8125V15.9375ZM19.6875 15H21.5625C21.8111 15 22.0496 15.0988 22.2254 15.2746C22.4012 15.4504 22.5 15.6889 22.5 15.9375V17.8125C22.5 18.0611 22.4012 18.2996 22.2254 18.4754C22.0496 18.6512 21.8111 18.75 21.5625 18.75H19.6875C19.4389 18.75 19.2004 18.6512 19.0246 18.4754C18.8488 18.2996 18.75 18.0611 18.75 17.8125V15.9375C18.75 15.6889 18.8488 15.4504 19.0246 15.2746C19.2004 15.0988 19.4389 15 19.6875 15Z" fill="#0C8F11"/>
</svg>
