<svg width="30" height="24" viewBox="0 0 30 24" fill="none" xmlns="http://www.w3.org/2000/svg">
<g clip-path="url(#clip0_30_77)">
<path d="M6.75 7.5C7.74456 7.5 8.69839 7.10491 9.40165 6.40165C10.1049 5.69839 10.5 4.74456 10.5 3.75C10.5 2.75544 10.1049 1.80161 9.40165 1.09835C8.69839 0.395088 7.74456 0 6.75 0C5.75544 0 4.80161 0.395088 4.09835 1.09835C3.39509 1.80161 3 2.75544 3 3.75C3 4.74456 3.39509 5.69839 4.09835 6.40165C4.80161 7.10491 5.75544 7.5 6.75 7.5ZM24 7.5C24.9946 7.5 25.9484 7.10491 26.6516 6.40165C27.3549 5.69839 27.75 4.74456 27.75 3.75C27.75 2.75544 27.3549 1.80161 26.6516 1.09835C25.9484 0.395088 24.9946 0 24 0C23.0054 0 22.0516 0.395088 21.3484 1.09835C20.6451 1.80161 20.25 2.75544 20.25 3.75C20.25 4.74456 20.6451 5.69839 21.3484 6.40165C22.0516 7.10491 23.0054 7.5 24 7.5ZM0 14.0016C0 14.55 0.45 15 0.998437 15H11.0297C9.78281 13.8984 9 12.2906 9 10.5C9 10.1438 9.03281 9.79688 9.08906 9.45469C8.45156 9.15938 7.74375 9 6.99844 9H4.99687C2.24062 9 0 11.2406 0 14.0016ZM15 15C16.125 15 17.1516 14.5875 17.9391 13.9078C18.0563 13.7344 18.1828 13.5656 18.3141 13.4062C18.4406 13.2516 18.5813 13.1203 18.7359 13.0172C19.2188 12.2953 19.5 11.4328 19.5 10.5C19.5 8.01562 17.4844 6 15 6C12.5156 6 10.5 8.01562 10.5 10.5C10.5 12.9844 12.5156 15 15 15ZM18.0656 17.8219C17.5828 17.5453 17.2172 17.0625 17.0906 16.5H12.2531C8.79844 16.5 6 19.2984 6 22.7484C6 23.4375 6.55781 24 7.25156 24H21.3422C21.2437 23.7563 21.1922 23.4891 21.1922 23.2313V23.0906C21.1313 23.0578 21.0656 23.0203 21.0047 22.9828L20.8828 23.0531C20.0953 23.5078 18.9844 23.4281 18.3187 22.5984C18.1078 22.3359 17.9156 22.0594 17.7375 21.7734L17.7328 21.7641L17.7281 21.7547L17.6156 21.5625L17.6109 21.5531L17.6063 21.5438C17.4469 21.2531 17.3062 20.9531 17.1844 20.6391C16.8 19.6453 17.2875 18.6422 18.075 18.1875L18.2016 18.1172V17.9016L18.075 17.8312L18.0656 17.8219ZM24.9984 9H22.9969C22.2516 9 21.5438 9.16406 20.9062 9.45469C20.9672 9.79219 20.9953 10.1438 20.9953 10.5C20.9953 11.3156 20.8313 12.0891 20.5406 12.7969C20.6578 12.8391 20.7703 12.8906 20.8734 12.9516L20.9953 13.0219C21.0562 12.9844 21.1172 12.9469 21.1828 12.9141V12.7734C21.1828 11.8641 21.8063 10.9406 22.8609 10.7766C23.2313 10.7203 23.6109 10.6875 23.9953 10.6875C24.3797 10.6875 24.7594 10.7156 25.1297 10.7766C26.1844 10.9406 26.8078 11.8641 26.8078 12.7734V12.9141C26.8688 12.9469 26.9344 12.9844 26.9953 13.0219L27.1172 12.9516C27.9047 12.4969 29.0156 12.5766 29.6813 13.4062C29.7891 13.5375 29.8922 13.6781 29.9906 13.8141C29.8922 11.1375 27.6938 9 24.9938 9H24.9984ZM29.2781 16.6828C29.5734 16.5141 29.7234 16.1625 29.5969 15.8391C29.4984 15.5812 29.3813 15.3328 29.25 15.0938L29.1422 14.9062C28.9969 14.6672 28.8375 14.4422 28.6641 14.2266C28.4484 13.9594 28.0688 13.9125 27.7734 14.0859L27.6375 14.1656C27.2062 14.4141 26.6812 14.3531 26.25 14.1047C25.8188 13.8562 25.4953 13.425 25.4953 12.9281V12.7687C25.4953 12.4266 25.2656 12.1219 24.9281 12.0703C24.6234 12.0234 24.3141 12 23.9953 12C23.6766 12 23.3672 12.0234 23.0625 12.0703C22.725 12.1219 22.4953 12.4266 22.4953 12.7687V12.9281C22.4953 13.425 22.1719 13.8562 21.7406 14.1047C21.3094 14.3531 20.7844 14.4141 20.3531 14.1656L20.2172 14.0859C19.9219 13.9172 19.5422 13.9641 19.3266 14.2266C19.1531 14.4422 18.9937 14.6719 18.8484 14.9109L18.7406 15.0938C18.6094 15.3328 18.4922 15.5812 18.3937 15.8391C18.2719 16.1578 18.4172 16.5094 18.7125 16.6781L18.8484 16.7578C19.2797 17.0063 19.4906 17.4984 19.4906 17.9953C19.4906 18.4922 19.2797 18.9844 18.8484 19.2328L18.7078 19.3125C18.4125 19.4813 18.2625 19.8328 18.3891 20.1516C18.4875 20.4094 18.6047 20.6531 18.7359 20.8922L18.8484 21.0844C18.9891 21.3234 19.1484 21.5484 19.3219 21.7641C19.5375 22.0312 19.9172 22.0781 20.2125 21.9047L20.3484 21.825C20.7797 21.5766 21.3047 21.6375 21.7359 21.8859C22.1672 22.1344 22.4906 22.5656 22.4906 23.0625V23.2219C22.4906 23.5641 22.7203 23.8687 23.0578 23.9203C23.3625 23.9672 23.6719 23.9906 23.9906 23.9906C24.3094 23.9906 24.6188 23.9672 24.9234 23.9203C25.2609 23.8687 25.4906 23.5641 25.4906 23.2219V23.0625C25.4906 22.5656 25.8141 22.1344 26.2453 21.8859C26.6766 21.6375 27.2016 21.5766 27.6328 21.825L27.7688 21.9047C28.0641 22.0734 28.4438 22.0266 28.6594 21.7641C28.8328 21.5484 28.9922 21.3234 29.1328 21.0844L29.2453 20.8875C29.3766 20.6484 29.4937 20.4047 29.5922 20.1469C29.7141 19.8281 29.5688 19.4766 29.2734 19.3078L29.1328 19.2281C28.7016 18.9797 28.4906 18.4875 28.4906 17.9906C28.4906 17.4937 28.7016 17.0016 29.1328 16.7531L29.2734 16.6734L29.2781 16.6828ZM22.125 18C22.125 17.5027 22.3225 17.0258 22.6742 16.6742C23.0258 16.3225 23.5027 16.125 24 16.125C24.4973 16.125 24.9742 16.3225 25.3258 16.6742C25.6775 17.0258 25.875 17.5027 25.875 18C25.875 18.4973 25.6775 18.9742 25.3258 19.3258C24.9742 19.6775 24.4973 19.875 24 19.875C23.5027 19.875 23.0258 19.6775 22.6742 19.3258C22.3225 18.9742 22.125 18.4973 22.125 18Z" fill="#F59E0B"/>
</g>
<defs>
<clipPath id="clip0_30_77">
<rect width="30" height="24" fill="white"/>
</clipPath>
</defs>
</svg>
