<svg width="30" height="30" viewBox="0 0 30 30" fill="none" xmlns="http://www.w3.org/2000/svg">
<path d="M8.75 2.5H21.25C22.2446 2.5 23.1984 2.89509 23.9017 3.59835C24.6049 4.30161 25 5.25544 25 6.25V23.75C25 24.7446 24.6049 25.6984 23.9017 26.4017C23.1984 27.1049 22.2446 27.5 21.25 27.5H8.75C7.75544 27.5 6.80161 27.1049 6.09835 26.4017C5.39509 25.6984 5 24.7446 5 23.75V6.25C5 5.25544 5.39509 4.30161 6.09835 3.59835C6.80161 2.89509 7.75544 2.5 8.75 2.5ZM8.75 5C8.41848 5 8.10054 5.1317 7.86612 5.36612C7.6317 5.60054 7.5 5.91848 7.5 6.25V23.75C7.5 24.0815 7.6317 24.3995 7.86612 24.6339C8.10054 24.8683 8.41848 25 8.75 25H21.25C21.5815 25 21.8995 24.8683 22.1339 24.6339C22.3683 24.3995 22.5 24.0815 22.5 23.75V6.25C22.5 5.91848 22.3683 5.60054 22.1339 5.36612C21.8995 5.1317 21.5815 5 21.25 5H8.75ZM11.25 6.25H18.75C19.0815 6.25 19.3995 6.3817 19.6339 6.61612C19.8683 6.85054 20 7.16848 20 7.5C20 7.83152 19.8683 8.14946 19.6339 8.38388C19.3995 8.6183 19.0815 8.75 18.75 8.75H11.25C10.9185 8.75 10.6005 8.6183 10.3661 8.38388C10.1317 8.14946 10 7.83152 10 7.5C10 7.16848 10.1317 6.85054 10.3661 6.61612C10.6005 6.3817 10.9185 6.25 11.25 6.25ZM11.25 21.25H13.75C14.0815 21.25 14.3995 21.3817 14.6339 21.6161C14.8683 21.8505 15 22.1685 15 22.5C15 22.8315 14.8683 23.1495 14.6339 23.3839C14.3995 23.6183 14.0815 23.75 13.75 23.75H11.25C10.9185 23.75 10.6005 23.6183 10.3661 23.3839C10.1317 23.1495 10 22.8315 10 22.5C10 22.1685 10.1317 21.8505 10.3661 21.6161C10.6005 21.3817 10.9185 21.25 11.25 21.25ZM11.25 16.25H18.75C19.0815 16.25 19.3995 16.3817 19.6339 16.6161C19.8683 16.8505 20 17.1685 20 17.5C20 17.8315 19.8683 18.1495 19.6339 18.3839C19.3995 18.6183 19.0815 18.75 18.75 18.75H11.25C10.9185 18.75 10.6005 18.6183 10.3661 18.3839C10.1317 18.1495 10 17.8315 10 17.5C10 17.1685 10.1317 16.8505 10.3661 16.6161C10.6005 16.3817 10.9185 16.25 11.25 16.25ZM11.25 11.25H18.75C19.0815 11.25 19.3995 11.3817 19.6339 11.6161C19.8683 11.8505 20 12.1685 20 12.5C20 12.8315 19.8683 13.1495 19.6339 13.3839C19.3995 13.6183 19.0815 13.75 18.75 13.75H11.25C10.9185 13.75 10.6005 13.6183 10.3661 13.3839C10.1317 13.1495 10 12.8315 10 12.5C10 12.1685 10.1317 11.8505 10.3661 11.6161C10.6005 11.3817 10.9185 11.25 11.25 11.25Z" fill="#F51919"/>
</svg>
