<svg width="16" height="16" viewBox="0 0 16 16" fill="none" xmlns="http://www.w3.org/2000/svg">
<path id="Vector" d="M14.8909 0.518623C14.1994 -0.172874 13.0816 -0.172874 12.3901 0.518623L11.6197 1.28906L14.7109 4.38027L15.4813 3.60984C16.1728 2.91834 16.1728 1.80058 15.4813 1.10908L14.8909 0.518623ZM5.44357 7.46517C5.25096 7.65778 5.10255 7.89459 5.0173 8.15667L4.08268 10.9605C3.99111 11.2321 4.06373 11.5321 4.26581 11.7373C4.46789 11.9425 4.76786 12.012 5.04256 11.9204L7.84644 10.9858C8.10536 10.9006 8.34217 10.7522 8.53794 10.5595L13.6405 5.45067L10.5493 2.35946L5.44357 7.46517ZM3.03122 1.85425C1.35773 1.85425 0 3.21199 0 4.88548V12.9687C0 14.6422 1.35773 16 3.03122 16H11.1145C12.788 16 14.1457 14.6422 14.1457 12.9687V9.93751C14.1457 9.37863 13.6942 8.9271 13.1353 8.9271C12.5764 8.9271 12.1249 9.37863 12.1249 9.93751V12.9687C12.1249 13.5276 11.6734 13.9791 11.1145 13.9791H3.03122C2.47234 13.9791 2.02081 13.5276 2.02081 12.9687V4.88548C2.02081 4.32659 2.47234 3.87507 3.03122 3.87507H6.06244C6.62132 3.87507 7.07285 3.42354 7.07285 2.86466C7.07285 2.30578 6.62132 1.85425 6.06244 1.85425H3.03122Z" fill="black"/>
</svg>
