<svg width="17" height="19" viewBox="0 0 17 19" fill="none" xmlns="http://www.w3.org/2000/svg">
<path id="Vector" d="M10.5553 9.49871V17.8154C10.5975 18.132 10.492 18.4697 10.2492 18.6914C10.1516 18.7892 10.0356 18.8668 9.90793 18.9198C9.78025 18.9727 9.64338 19 9.50516 19C9.36693 19 9.23006 18.9727 9.10239 18.9198C8.97471 18.8668 8.85873 18.7892 8.76109 18.6914L6.63971 16.57C6.52467 16.4574 6.43719 16.3198 6.3841 16.1678C6.33101 16.0159 6.31374 15.8537 6.33364 15.694V9.49871H6.30198L0.222806 1.70977C0.0514153 1.48975 -0.0259194 1.21083 0.00769982 0.933966C0.0413191 0.657102 0.183159 0.4048 0.402226 0.232191C0.602754 0.084433 0.824391 0 1.05658 0H15.8324C16.0645 0 16.2862 0.084433 16.4867 0.232191C16.7058 0.4048 16.8476 0.657102 16.8812 0.933966C16.9149 1.21083 16.8375 1.48975 16.6661 1.70977L10.587 9.49871H10.5553Z" fill="black"/>
</svg>
