<svg width="40" height="36" viewBox="0 0 40 36" fill="none" xmlns="http://www.w3.org/2000/svg">
<g id="fa6-solid:money-bill-wave">
<path id="Vector" d="M0 7.90986V29.6927C0 30.9583 0.701389 32.1536 1.875 32.5966C7.91667 34.8817 13.9583 33.3208 20 31.7599C25.5417 30.3325 31.0833 28.8981 36.6181 30.431C38.2153 30.8739 40 29.763 40 28.0825V6.29267C40 5.02705 39.2986 3.83174 38.125 3.38877C32.0833 1.11767 26.0417 2.67861 20 4.23955C14.4583 5.66689 8.91667 7.09424 3.38194 5.56142C1.77778 5.11846 0 6.22939 0 7.90986ZM20 24.7497C16.9306 24.7497 14.4444 21.7263 14.4444 17.9997C14.4444 14.2731 16.9306 11.2497 20 11.2497C23.0694 11.2497 25.5556 14.2731 25.5556 17.9997C25.5556 21.7263 23.0694 24.7497 20 24.7497ZM4.44444 24.7497C6.89583 24.7497 8.88889 26.7677 8.88889 29.2497H4.44444V24.7497ZM8.88889 10.1247C8.88889 12.6067 6.89583 14.6247 4.44444 14.6247V10.1247H8.88889ZM35.5556 21.3747V25.8747H31.1111C31.1111 23.3927 33.1042 21.3747 35.5556 21.3747ZM31.1111 6.74971H35.5556V11.2497C33.1042 11.2497 31.1111 9.23174 31.1111 6.74971Z" fill="#0C8F11"/>
</g>
</svg>
