<svg width="40" height="40" viewBox="0 0 40 40" fill="none" xmlns="http://www.w3.org/2000/svg">
<g id="fa7-solid:exchange" clip-path="url(#clip0_40_64)">
<path id="Vector" d="M39.2656 11.7656L31.7656 19.2656C30.7891 20.2422 29.2031 20.2422 28.2266 19.2656C27.25 18.2891 27.25 16.7031 28.2266 15.7266L31.4609 12.5H2.5C1.11719 12.5 -1.49012e-08 11.3828 -1.49012e-08 10C-1.49012e-08 8.61719 1.11719 7.5 2.5 7.5H31.4609L28.2266 4.26562C27.25 3.28906 27.25 1.70312 28.2266 0.726562C29.2031 -0.25 30.7891 -0.25 31.7656 0.726562L39.2656 8.22656C40.2422 9.20312 40.2422 10.7891 39.2656 11.7656ZM8.22656 39.2656L0.726562 31.7656C-0.25 30.7891 -0.25 29.2031 0.726562 28.2266L8.22656 20.7266C9.20312 19.75 10.7891 19.75 11.7656 20.7266C12.7422 21.7031 12.7422 23.2891 11.7656 24.2656L8.53906 27.5H37.5C38.8828 27.5 40 28.6172 40 30C40 31.3828 38.8828 32.5 37.5 32.5H8.53906L11.7734 35.7344C12.75 36.7109 12.75 38.2969 11.7734 39.2734C10.7969 40.25 9.21094 40.25 8.23438 39.2734L8.22656 39.2656Z" fill="#F59E0B"/>
</g>
<defs>
<clipPath id="clip0_40_64">
<rect width="40" height="40" fill="white"/>
</clipPath>
</defs>
</svg>
