<svg width="40" height="36" viewBox="0 0 40 36" fill="none" xmlns="http://www.w3.org/2000/svg">
<g id="fa6-solid:piggy-bank" clip-path="url(#clip0_40_77)">
<path id="Vector" d="M27.7778 6.75V6.79922C27.4097 6.77109 27.0417 6.75 26.6667 6.75H17.7778C16.6319 6.75 15.5208 6.89766 14.4583 7.17188C14.4514 7.03125 14.4444 6.89062 14.4444 6.75C14.4444 3.02344 17.4306 0 21.1111 0C24.7917 0 27.7778 3.02344 27.7778 6.75ZM26.6667 9C26.9097 9 27.1528 9.00703 27.3889 9.02109C27.6806 9.04219 27.9722 9.07031 28.2639 9.1125C29.4861 7.67109 31.3056 6.75 33.3333 6.75H34.1319C34.8542 6.75 35.3819 7.43906 35.2083 8.14922L34.25 12.0305C35.3472 13.0711 36.2431 14.3367 36.8542 15.75H37.7778C39.0069 15.75 40 16.7555 40 18V24.75C40 25.9945 39.0069 27 37.7778 27H35.5556C34.9236 27.8508 34.1736 28.6102 33.3333 29.25V33.75C33.3333 34.9945 32.3403 36 31.1111 36H28.8889C27.6597 36 26.6667 34.9945 26.6667 33.75V31.5H17.7778V33.75C17.7778 34.9945 16.7847 36 15.5556 36H13.3333C12.1042 36 11.1111 34.9945 11.1111 33.75V29.25C8.6875 27.4078 7.03472 24.5883 6.72222 21.375H4.72222C2.11111 21.375 0 19.2375 0 16.5938C0 13.95 2.11111 11.8125 4.72222 11.8125H5C5.92361 11.8125 6.66667 12.5648 6.66667 13.5C6.66667 14.4352 5.92361 15.1875 5 15.1875H4.72222C3.95833 15.1875 3.33333 15.8203 3.33333 16.5938C3.33333 17.3672 3.95833 18 4.72222 18H6.88889C7.72917 13.7953 10.8958 10.4414 14.9653 9.36562C15.8611 9.12656 16.8056 9 17.7778 9H26.6667ZM31.1111 18.5625C31.1111 18.1149 30.9355 17.6857 30.623 17.3693C30.3104 17.0528 29.8865 16.875 29.4444 16.875C29.0024 16.875 28.5785 17.0528 28.2659 17.3693C27.9534 17.6857 27.7778 18.1149 27.7778 18.5625C27.7778 19.0101 27.9534 19.4393 28.2659 19.7557C28.5785 20.0722 29.0024 20.25 29.4444 20.25C29.8865 20.25 30.3104 20.0722 30.623 19.7557C30.9355 19.4393 31.1111 19.0101 31.1111 18.5625Z" fill="#F51919"/>
</g>
<defs>
<clipPath id="clip0_40_77">
<rect width="40" height="36" fill="white"/>
</clipPath>
</defs>
</svg>
