<svg width="17" height="19" viewBox="0 0 17 19" fill="none" xmlns="http://www.w3.org/2000/svg">
<path id="Vector" d="M10.555 9.49845V17.8149C10.5972 18.1315 10.4917 18.4692 10.2489 18.6908C10.1513 18.7887 10.0353 18.8663 9.90766 18.9193C9.77999 18.9722 9.64312 18.9995 9.5049 18.9995C9.36668 18.9995 9.22981 18.9722 9.10214 18.9193C8.97447 18.8663 8.85849 18.7887 8.76085 18.6908L6.63953 16.5695C6.52449 16.457 6.43702 16.3193 6.38393 16.1674C6.33084 16.0154 6.31357 15.8533 6.33347 15.6936V9.49845H6.30181L0.2228 1.70972C0.0514139 1.48971 -0.0259187 1.2108 0.00769961 0.933941C0.0413179 0.657084 0.183154 0.404789 0.402215 0.232184C0.602738 0.0844307 0.824368 0 1.05655 0H15.8319C16.0641 0 16.2857 0.0844307 16.4863 0.232184C16.7053 0.404789 16.8472 0.657084 16.8808 0.933941C16.9144 1.2108 16.8371 1.48971 16.6657 1.70972L10.5867 9.49845H10.555Z" fill="black"/>
</svg>
