<svg width="30" height="30" viewBox="0 0 30 30" fill="none" xmlns="http://www.w3.org/2000/svg">
<g id="tabler:clock-filled">
<path id="Vector" d="M21.25 4.17511C23.1353 5.26368 24.7037 6.82577 25.7998 8.70674C26.8959 10.5877 27.4817 12.7223 27.4993 14.8993C27.5169 17.0762 26.9656 19.2201 25.9 21.1185C24.8345 23.0169 23.2916 24.6041 21.4241 25.723C19.5566 26.8419 17.4292 27.4536 15.2526 27.4977C13.076 27.5417 10.9257 27.0166 9.01444 25.9742C7.1032 24.9318 5.49734 23.4083 4.35583 21.5545C3.21433 19.7007 2.57676 17.581 2.50625 15.4051L2.5 15.0001L2.50625 14.5951C2.57625 12.4363 3.20443 10.3326 4.32955 8.48885C5.45466 6.64514 7.03832 5.12442 8.92612 4.07496C10.8139 3.0255 12.9414 2.48311 15.1013 2.50066C17.2611 2.51821 19.3795 3.09511 21.25 4.17511ZM15 7.50011C14.6938 7.50015 14.3983 7.61256 14.1695 7.816C13.9407 8.01945 13.7946 8.2998 13.7587 8.60386L13.75 8.75011V15.0001L13.7612 15.1639C13.7898 15.3807 13.8747 15.5863 14.0075 15.7601L14.1163 15.8851L17.8663 19.6351L17.9838 19.7376C18.203 19.9077 18.4725 20 18.75 20C19.0275 20 19.297 19.9077 19.5163 19.7376L19.6337 19.6339L19.7375 19.5164C19.9076 19.2971 19.9999 19.0276 19.9999 18.7501C19.9999 18.4726 19.9076 18.2031 19.7375 17.9839L19.6337 17.8664L16.25 14.4814V8.75011L16.2413 8.60386C16.2054 8.2998 16.0593 8.01945 15.8305 7.816C15.6017 7.61256 15.3062 7.50015 15 7.50011Z" fill="#F59E0B"/>
</g>
</svg>
