<svg width="30" height="30" viewBox="0 0 30 30" fill="none" xmlns="http://www.w3.org/2000/svg">
<g id="fa7-solid:money-check-dollar">
<path id="Vector" d="M3.75 3.75C1.68164 3.75 0 5.43164 0 7.5V22.5C0 24.5684 1.68164 26.25 3.75 26.25H26.25C28.3184 26.25 30 24.5684 30 22.5V7.5C30 5.43164 28.3184 3.75 26.25 3.75H3.75ZM17.3438 16.875H24.8438C25.623 16.875 26.25 17.502 26.25 18.2812C26.25 19.0605 25.623 19.6875 24.8438 19.6875H17.3438C16.5645 19.6875 15.9375 19.0605 15.9375 18.2812C15.9375 17.502 16.5645 16.875 17.3438 16.875ZM15.9375 11.7188C15.9375 10.9395 16.5645 10.3125 17.3438 10.3125H24.8438C25.623 10.3125 26.25 10.9395 26.25 11.7188C26.25 12.498 25.623 13.125 24.8438 13.125H17.3438C16.5645 13.125 15.9375 12.498 15.9375 11.7188ZM8.67188 8.4375C9.31641 8.4375 9.84375 8.96484 9.84375 9.60938V9.84375H10.3125C10.957 9.84375 11.4844 10.3711 11.4844 11.0156C11.4844 11.6602 10.957 12.1875 10.3125 12.1875H7.5293C7.125 12.1875 6.79688 12.5156 6.79688 12.9199C6.79688 13.2773 7.05469 13.582 7.40625 13.6406L9.84961 14.0508C11.332 14.2969 12.4219 15.5801 12.4219 17.0859C12.4219 18.6152 11.3086 19.8809 9.84375 20.1211V20.3965C9.84375 21.041 9.31641 21.5684 8.67188 21.5684C8.02734 21.5684 7.5 21.041 7.5 20.3965V20.1621H6.09375C5.44922 20.1621 4.92188 19.6348 4.92188 18.9902C4.92188 18.3457 5.44922 17.8184 6.09375 17.8184H9.3457C9.75 17.8184 10.0781 17.4902 10.0781 17.0859C10.0781 16.7285 9.82031 16.4238 9.46875 16.3652L7.02539 15.9551C5.53711 15.7031 4.45312 14.4199 4.45312 12.9199C4.45312 11.2324 5.8125 9.86133 7.5 9.84375V9.60938C7.5 8.96484 8.02734 8.4375 8.67188 8.4375Z" fill="#F51919"/>
</g>
</svg>
