<svg width="36" height="49" viewBox="0 0 36 49" fill="none" xmlns="http://www.w3.org/2000/svg">
<g id="Group">
<path id="Vector" fill-rule="evenodd" clip-rule="evenodd" d="M19.302 47.7509L19.2773 47.7554L19.1178 47.8341L19.0729 47.843L19.0415 47.8341L18.882 47.7554C18.858 47.7479 18.8401 47.7517 18.8281 47.7667L18.8191 47.7891L18.7809 48.7505L18.7921 48.7954L18.8146 48.8247L19.0482 48.9909L19.0819 48.9999L19.1089 48.9909L19.3425 48.8247L19.3694 48.7887L19.3784 48.7505L19.3402 47.7914C19.3342 47.7674 19.3215 47.7539 19.302 47.7509ZM19.8973 47.4971L19.8681 47.5016L19.4525 47.7105L19.4301 47.733L19.4233 47.7577L19.4638 48.7236L19.475 48.7505L19.493 48.7662L19.9445 48.9751C19.9729 48.9826 19.9946 48.9766 20.0096 48.9572L20.0186 48.9257L19.9422 47.5465C19.9347 47.5196 19.9198 47.5031 19.8973 47.4971ZM18.2912 47.5016C18.2813 47.4956 18.2695 47.4937 18.2582 47.4962C18.2469 47.4987 18.237 47.5055 18.2306 47.5151L18.2171 47.5465L18.1407 48.9257C18.1422 48.9527 18.155 48.9707 18.1789 48.9796L18.2126 48.9751L18.6641 48.7662L18.6866 48.7483L18.6956 48.7236L18.7337 47.7577L18.727 47.7307L18.7045 47.7083L18.2912 47.5016Z" fill="white"/>
<path id="Vector_2" fill-rule="evenodd" clip-rule="evenodd" d="M17.97 0V14.6006C17.97 15.4942 18.325 16.3513 18.9569 16.9831C19.5888 17.615 20.4458 17.97 21.3394 17.97H35.94V40.4325C35.94 41.624 35.4667 42.7667 34.6242 43.6092C33.7817 44.4517 32.639 44.925 31.4475 44.925H4.4925C3.30102 44.925 2.15833 44.4517 1.31582 43.6092C0.473316 42.7667 0 41.624 0 40.4325V4.4925C0 3.30102 0.473316 2.15833 1.31582 1.31582C2.15833 0.473316 3.30102 0 4.4925 0H17.97ZM21.5438 26.1846L15.9843 31.744L14.3962 30.1559C13.9726 29.7468 13.4052 29.5203 12.8162 29.5255C12.2272 29.5306 11.6639 29.7668 11.2474 30.1833C10.8309 30.5998 10.5947 31.1631 10.5896 31.7521C10.5844 32.3411 10.8109 32.9085 11.22 33.3321L14.2367 36.3511C14.4662 36.5806 14.7386 36.7628 15.0385 36.887C15.3383 37.0112 15.6597 37.0752 15.9843 37.0752C16.3089 37.0752 16.6303 37.0112 16.9302 36.887C17.23 36.7628 17.5025 36.5806 17.7319 36.3511L24.72 29.3608C24.9345 29.1535 25.1057 28.9057 25.2234 28.6316C25.3411 28.3576 25.4031 28.0628 25.4057 27.7646C25.4083 27.4663 25.3514 27.1705 25.2385 26.8945C25.1255 26.6184 24.9587 26.3676 24.7478 26.1567C24.5369 25.9458 24.2861 25.779 24.0101 25.6661C23.734 25.5531 23.4382 25.4963 23.14 25.4989C22.8417 25.5015 22.547 25.5634 22.2729 25.6812C21.9989 25.7989 21.751 25.97 21.5438 26.1846ZM22.4625 0.0965888C23.3136 0.277087 24.0939 0.700811 24.7088 1.3163L34.6237 11.2313C35.2392 11.8461 35.6629 12.6265 35.8434 13.4775H22.4625V0.0965888Z" fill="white"/>
</g>
</svg>
