<svg width="40" height="40" viewBox="0 0 40 40" fill="none" xmlns="http://www.w3.org/2000/svg">
<g id="fa7-solid:sign-out-alt" clip-path="url(#clip0_87_33)">
<path id="Vector" d="M39.4531 21.3281C40.1875 20.5938 40.1875 19.4062 39.4531 18.6797L28.2031 7.42188C27.6641 6.88281 26.8594 6.72656 26.1562 7.01562C25.4531 7.30469 25 7.99219 25 8.75V15H16.25C14.1797 15 12.5 16.6797 12.5 18.75V21.25C12.5 23.3203 14.1797 25 16.25 25H25V31.25C25 32.0078 25.4531 32.6953 26.1562 32.9844C26.8594 33.2734 27.6641 33.1172 28.2031 32.5781L39.4531 21.3281ZM12.5 7.5C13.8828 7.5 15 6.38281 15 5C15 3.61719 13.8828 2.5 12.5 2.5H7.5C3.35938 2.5 0 5.85938 0 10V30C0 34.1406 3.35938 37.5 7.5 37.5H12.5C13.8828 37.5 15 36.3828 15 35C15 33.6172 13.8828 32.5 12.5 32.5H7.5C6.11719 32.5 5 31.3828 5 30V10C5 8.61719 6.11719 7.5 7.5 7.5H12.5Z" fill="white"/>
</g>
<defs>
<clipPath id="clip0_87_33">
<rect width="40" height="40" fill="white"/>
</clipPath>
</defs>
</svg>
