<svg width="40" height="39" viewBox="0 0 40 39" fill="none" xmlns="http://www.w3.org/2000/svg">
<g id="fa:pie-chart" clip-path="url(#clip0_87_438)">
<path id="Vector" d="M17.7785 20.8594L30.4127 33.6562C28.7775 35.3438 26.8685 36.6562 24.6857 37.5938C22.5029 38.5312 20.2005 39 17.7785 39C14.5544 39 11.581 38.1953 8.85821 36.5859C6.13546 34.9766 3.97962 32.793 2.3907 30.0352C0.801783 27.2773 0.00732422 24.2656 0.00732422 21C0.00732422 17.7344 0.801783 14.7227 2.3907 11.9648C3.97962 9.20703 6.13546 7.02344 8.85821 5.41406C11.581 3.80469 14.5544 3 17.7785 3V20.8594ZM22.1056 21H39.9925C39.9925 23.4531 39.5297 25.7852 38.6041 27.9961C37.6786 30.207 36.3827 32.1406 34.7167 33.7969L22.1056 21ZM38.5116 18H20.7404V0C23.9645 0 26.9379 0.804688 29.6607 2.41406C32.3835 4.02344 34.5393 6.20703 36.1282 8.96484C37.7171 11.7227 38.5116 14.7344 38.5116 18Z" fill="white"/>
</g>
<defs>
<clipPath id="clip0_87_438">
<rect width="40" height="39" fill="white"/>
</clipPath>
</defs>
</svg>
