<svg width="40" height="40" viewBox="0 0 40 40" fill="none" xmlns="http://www.w3.org/2000/svg">
<g id="Frame icon details">
<rect width="40" height="40" rx="15" fill="#E2E8F0"/>
<path id="Vector" d="M20.0023 13C17.4773 13 15.4555 14.15 13.9836 15.5187C12.5211 16.8781 11.543 18.5 11.0773 19.6156C10.9742 19.8625 10.9742 20.1375 11.0773 20.3844C11.543 21.5 12.5211 23.125 13.9836 24.4812C15.4555 25.8469 17.4773 27 20.0023 27C22.5273 27 24.5492 25.85 26.0211 24.4812C27.4836 23.1219 28.4617 21.5 28.9273 20.3844C29.0305 20.1375 29.0305 19.8625 28.9273 19.6156C28.4617 18.5 27.4836 16.875 26.0211 15.5187C24.5492 14.1531 22.5273 13 20.0023 13ZM15.5023 20C15.5023 18.8065 15.9764 17.6619 16.8204 16.818C17.6643 15.9741 18.8089 15.5 20.0023 15.5C21.1958 15.5 22.3404 15.9741 23.1843 16.818C24.0282 17.6619 24.5023 18.8065 24.5023 20C24.5023 21.1935 24.0282 22.3381 23.1843 23.182C22.3404 24.0259 21.1958 24.5 20.0023 24.5C18.8089 24.5 17.6643 24.0259 16.8204 23.182C15.9764 22.3381 15.5023 21.1935 15.5023 20ZM20.0023 18C20.0023 19.1031 19.1055 20 18.0023 20C17.643 20 17.3055 19.9062 17.0117 19.7375C16.9805 20.0781 17.0086 20.4281 17.1023 20.775C17.5305 22.375 19.1773 23.325 20.7773 22.8969C22.3773 22.4688 23.3273 20.8219 22.8992 19.2219C22.518 17.7938 21.1648 16.8844 19.7398 17.0094C19.9055 17.3 20.0023 17.6375 20.0023 18Z" fill="black"/>
</g>
</svg>
