<svg width="40" height="40" viewBox="0 0 40 40" fill="none" xmlns="http://www.w3.org/2000/svg">
<g id="famicons:wallet">
<path id="Vector" d="M7.46094 8.12455H32.4609C32.753 8.12447 33.0447 8.14299 33.3344 8.18001C33.2362 7.49077 32.9994 6.82856 32.6384 6.23329C32.2774 5.63802 31.7995 5.12203 31.2337 4.71642C30.6678 4.31082 30.0257 4.02401 29.346 3.87328C28.6663 3.72255 27.9632 3.71102 27.2789 3.83939L6.71875 7.34955H6.69531C5.40474 7.59634 4.25708 8.32652 3.48672 9.39095C4.64734 8.56542 6.03667 8.12271 7.46094 8.12455ZM32.4609 9.99955H7.46094C6.1353 10.001 4.86437 10.5282 3.927 11.4656C2.98963 12.403 2.46239 13.6739 2.46094 14.9995V29.9995C2.46239 31.3252 2.98963 32.5961 3.927 33.5335C4.86437 34.4708 6.1353 34.9981 7.46094 34.9995H32.4609C33.7866 34.9981 35.0575 34.4708 35.9949 33.5335C36.9322 32.5961 37.4595 31.3252 37.4609 29.9995V14.9995C37.4595 13.6739 36.9322 12.403 35.9949 11.4656C35.0575 10.5282 33.7866 10.001 32.4609 9.99955ZM28.75 24.9995C28.2555 24.9995 27.7722 24.8529 27.3611 24.5782C26.95 24.3035 26.6295 23.9131 26.4403 23.4563C26.2511 22.9994 26.2016 22.4968 26.298 22.0118C26.3945 21.5269 26.6326 21.0814 26.9822 20.7318C27.3319 20.3821 27.7773 20.144 28.2623 20.0476C28.7472 19.9511 29.2499 20.0006 29.7067 20.1898C30.1635 20.3791 30.554 20.6995 30.8287 21.1106C31.1034 21.5217 31.25 22.0051 31.25 22.4995C31.25 23.1626 30.9866 23.7985 30.5178 24.2673C30.0489 24.7362 29.413 24.9995 28.75 24.9995Z" fill="white"/>
<path id="Vector_2" d="M2.5 20.2734V12.5C2.5 10.807 3.4375 7.96875 6.69141 7.35391C9.45312 6.83594 12.1875 6.83594 12.1875 6.83594C12.1875 6.83594 13.9844 8.08594 12.5 8.08594C11.0156 8.08594 11.0547 10 12.5 10C13.9453 10 12.5 11.8359 12.5 11.8359L6.67969 18.4375L2.5 20.2734Z" fill="white"/>
</g>
</svg>
