<svg width="40" height="53" viewBox="0 0 40 53" fill="none" xmlns="http://www.w3.org/2000/svg">
<g id="fa6-solid:file-invoice" clip-path="url(#clip0_87_60)">
<path id="Vector" d="M6.66667 0C2.98958 0 0 2.9709 0 6.625V46.375C0 50.0291 2.98958 53 6.66667 53H33.3333C37.0104 53 40 50.0291 40 46.375V16.5625H26.6667C24.8229 16.5625 23.3333 15.0822 23.3333 13.25V0H6.66667ZM26.6667 0V13.25H40L26.6667 0ZM8.33333 6.625H15C15.9167 6.625 16.6667 7.37031 16.6667 8.28125C16.6667 9.19219 15.9167 9.9375 15 9.9375H8.33333C7.41667 9.9375 6.66667 9.19219 6.66667 8.28125C6.66667 7.37031 7.41667 6.625 8.33333 6.625ZM8.33333 13.25H15C15.9167 13.25 16.6667 13.9953 16.6667 14.9062C16.6667 15.8172 15.9167 16.5625 15 16.5625H8.33333C7.41667 16.5625 6.66667 15.8172 6.66667 14.9062C6.66667 13.9953 7.41667 13.25 8.33333 13.25ZM10 23.1875H30C31.8438 23.1875 33.3333 24.6678 33.3333 26.5V33.125C33.3333 34.9572 31.8438 36.4375 30 36.4375H10C8.15625 36.4375 6.66667 34.9572 6.66667 33.125V26.5C6.66667 24.6678 8.15625 23.1875 10 23.1875ZM10 26.5V33.125H30V26.5H10ZM25 43.0625H31.6667C32.5833 43.0625 33.3333 43.8078 33.3333 44.7188C33.3333 45.6297 32.5833 46.375 31.6667 46.375H25C24.0833 46.375 23.3333 45.6297 23.3333 44.7188C23.3333 43.8078 24.0833 43.0625 25 43.0625Z" fill="white"/>
</g>
<defs>
<clipPath id="clip0_87_60">
<rect width="40" height="53" fill="white"/>
</clipPath>
</defs>
</svg>
