<svg width="40" height="40" viewBox="0 0 40 40" fill="none" xmlns="http://www.w3.org/2000/svg">
<g id="heroicons:cog-6-tooth-solid">
<path id="Vector" fill-rule="evenodd" clip-rule="evenodd" d="M18.4633 3.75C16.935 3.75 15.6317 4.855 15.38 6.36167L15.0833 8.14833C15.05 8.34833 14.8917 8.58167 14.5883 8.72833C14.0173 9.00289 13.4679 9.32047 12.945 9.67833C12.6683 9.87 12.3883 9.88833 12.195 9.81667L10.5 9.18C9.80707 8.9204 9.04449 8.9151 8.34802 9.16506C7.65155 9.41502 7.06638 9.90402 6.69666 10.545L5.16 13.2067C4.79015 13.8473 4.65952 14.5983 4.79136 15.3261C4.9232 16.054 5.30895 16.7115 5.88 17.1817L7.28 18.335C7.43833 18.465 7.56333 18.7167 7.53666 19.0517C7.48918 19.6836 7.48918 20.3181 7.53666 20.95C7.56166 21.2833 7.43833 21.5367 7.28166 21.6667L5.88 22.82C5.30895 23.2902 4.9232 23.9477 4.79136 24.6755C4.65952 25.4034 4.79015 26.1544 5.16 26.795L6.69666 29.4567C7.06664 30.0974 7.65193 30.586 8.34838 30.8356C9.04482 31.0853 9.80725 31.0797 10.5 30.82L12.1983 30.1833C12.39 30.1117 12.67 30.1317 12.9483 30.32C13.4683 30.6778 14.0156 30.9944 14.59 31.27C14.8933 31.4167 15.0517 31.65 15.085 31.8533L15.3817 33.6383C15.5035 34.3681 15.8802 35.031 16.4448 35.5092C17.0093 35.9874 17.7251 36.2499 18.465 36.25H21.5383C23.065 36.25 24.37 35.145 24.6217 33.6383L24.9183 31.8517C24.9517 31.6517 25.1083 31.4183 25.4133 31.27C25.9867 30.9944 26.5339 30.6778 27.055 30.32C27.3333 30.13 27.6133 30.1117 27.805 30.1833L29.505 30.82C30.1975 31.0787 30.9593 31.0835 31.6551 30.8336C32.3508 30.5837 32.9354 30.0952 33.305 29.455L34.8433 26.7933C35.2132 26.1527 35.3438 25.4017 35.212 24.6739C35.0801 23.946 34.6944 23.2885 34.1233 22.8183L32.7233 21.665C32.565 21.535 32.44 21.2833 32.4667 20.9483C32.5141 20.3164 32.5141 19.6819 32.4667 19.05C32.44 18.7167 32.565 18.4633 32.7217 18.3333L34.1217 17.18C35.3017 16.21 35.6067 14.53 34.8433 13.205L33.3067 10.5433C32.9367 9.90265 32.3514 9.414 31.655 9.16436C30.9585 8.91471 30.1961 8.92025 29.5033 9.18L27.8033 9.81667C27.6133 9.88833 27.3333 9.86833 27.055 9.67833C26.5326 9.32055 25.9838 9.00297 25.4133 8.72833C25.1083 8.58333 24.9517 8.35 24.9183 8.14833L24.62 6.36167C24.4984 5.63177 24.1218 4.96869 23.5572 4.49044C22.9926 4.0122 22.2766 3.74981 21.5367 3.75H18.4633ZM20 26.25C21.6576 26.25 23.2473 25.5915 24.4194 24.4194C25.5915 23.2473 26.25 21.6576 26.25 20C26.25 18.3424 25.5915 16.7527 24.4194 15.5806C23.2473 14.4085 21.6576 13.75 20 13.75C18.3424 13.75 16.7527 14.4085 15.5806 15.5806C14.4085 16.7527 13.75 18.3424 13.75 20C13.75 21.6576 14.4085 23.2473 15.5806 24.4194C16.7527 25.5915 18.3424 26.25 20 26.25Z" fill="white"/>
</g>
</svg>
