<svg width="53" height="53" viewBox="0 0 53 53" fill="none" xmlns="http://www.w3.org/2000/svg">
<path fill-rule="evenodd" clip-rule="evenodd" d="M27.8094 51.3619L27.7851 51.3663L27.6283 51.4436L27.5842 51.4524L27.5533 51.4436L27.3965 51.3663C27.3729 51.3589 27.3553 51.3626 27.3435 51.3773L27.3346 51.3994L27.2971 52.3446L27.3081 52.3887L27.3302 52.4175L27.5599 52.5809L27.593 52.5897L27.6195 52.5809L27.8492 52.4175L27.8757 52.3821L27.8845 52.3446L27.847 51.4016C27.8411 51.3781 27.8286 51.3648 27.8094 51.3619ZM28.3946 51.1123L28.3659 51.1167L27.9574 51.3221L27.9353 51.3442L27.9287 51.3685L27.9684 52.3181L27.9795 52.3446L27.9971 52.36L28.441 52.5654C28.469 52.5728 28.4903 52.5669 28.5051 52.5477L28.5139 52.5168L28.4388 51.1609C28.4314 51.1344 28.4167 51.1182 28.3946 51.1123ZM26.8157 51.1167C26.806 51.1108 26.7943 51.1089 26.7832 51.1114C26.7721 51.1139 26.7624 51.1205 26.7561 51.13L26.7428 51.1609L26.6677 52.5168C26.6692 52.5433 26.6817 52.561 26.7053 52.5698L26.7384 52.5654L27.1823 52.36L27.2043 52.3424L27.2132 52.3181L27.2507 51.3685L27.2441 51.342L27.222 51.3199L26.8157 51.1167Z" fill="white"/>
<path fill-rule="evenodd" clip-rule="evenodd" d="M26.4999 4.41699V18.7712C26.4999 19.6497 26.8489 20.4922 27.4701 21.1134C28.0913 21.7347 28.9339 22.0837 29.8124 22.0837H44.1666V44.167C44.1666 45.3384 43.7013 46.4618 42.873 47.29C42.0447 48.1183 40.9213 48.5837 39.7499 48.5837H13.2499C12.0785 48.5837 10.9551 48.1183 10.1269 47.29C9.29858 46.4618 8.83325 45.3384 8.83325 44.167V8.83366C8.83325 7.66229 9.29858 6.53889 10.1269 5.7106C10.9551 4.88232 12.0785 4.41699 13.2499 4.41699H26.4999ZM30.0134 30.1595L24.5478 35.6252L22.9865 34.0639C22.57 33.6616 22.0121 33.439 21.4331 33.444C20.8541 33.4491 20.3002 33.6813 19.8908 34.0908C19.4813 34.5002 19.2491 35.0541 19.2441 35.6331C19.239 36.2121 19.4616 36.77 19.8639 37.1865L22.8297 40.1544C23.0553 40.3801 23.3231 40.5592 23.6179 40.6813C23.9127 40.8035 24.2287 40.8663 24.5478 40.8663C24.8668 40.8663 25.1828 40.8035 25.4776 40.6813C25.7724 40.5592 26.0403 40.3801 26.2658 40.1544L33.136 33.2821C33.3469 33.0784 33.5151 32.8347 33.6308 32.5653C33.7466 32.2959 33.8075 32.0061 33.8101 31.7129C33.8126 31.4197 33.7567 31.1289 33.6457 30.8575C33.5347 30.5861 33.3707 30.3395 33.1633 30.1322C32.956 29.9248 32.7094 29.7608 32.438 29.6498C32.1666 29.5388 31.8758 29.4829 31.5826 29.4854C31.2894 29.488 30.9996 29.5489 30.7302 29.6646C30.4608 29.7804 30.2171 29.9486 30.0134 30.1595ZM30.9166 4.51195C31.7533 4.6894 32.5204 5.10597 33.1249 5.71108L42.8725 15.4587C43.4776 16.0631 43.8942 16.8303 44.0716 17.667H30.9166V4.51195Z" fill="white"/>
</svg>
