<svg width="40" height="40" viewBox="0 0 40 40" fill="none" xmlns="http://www.w3.org/2000/svg">
<path d="M7.5 0C6.83696 0 6.20107 0.263392 5.73223 0.732233C5.26339 1.20107 5 1.83696 5 2.5V37.5C5 38.163 5.26339 38.7989 5.73223 39.2678C6.20107 39.7366 6.83696 40 7.5 40H15V31.25C15 30.9185 15.1317 30.6005 15.3661 30.3661C15.6005 30.1317 15.9185 30 16.25 30H23.75C24.0815 30 24.3995 30.1317 24.6339 30.3661C24.8683 30.6005 25 30.9185 25 31.25V40H32.5C33.163 40 33.7989 39.7366 34.2678 39.2678C34.7366 38.7989 35 38.163 35 37.5V2.5C35 1.83696 34.7366 1.20107 34.2678 0.732233C33.7989 0.263392 33.163 0 32.5 0L7.5 0ZM10 6.25C10 5.91848 10.1317 5.60054 10.3661 5.36612C10.6005 5.1317 10.9185 5 11.25 5H13.75C14.0815 5 14.3995 5.1317 14.6339 5.36612C14.8683 5.60054 15 5.91848 15 6.25V8.75C15 9.08152 14.8683 9.39946 14.6339 9.63388C14.3995 9.8683 14.0815 10 13.75 10H11.25C10.9185 10 10.6005 9.8683 10.3661 9.63388C10.1317 9.39946 10 9.08152 10 8.75V6.25ZM17.5 6.25C17.5 5.91848 17.6317 5.60054 17.8661 5.36612C18.1005 5.1317 18.4185 5 18.75 5H21.25C21.5815 5 21.8995 5.1317 22.1339 5.36612C22.3683 5.60054 22.5 5.91848 22.5 6.25V8.75C22.5 9.08152 22.3683 9.39946 22.1339 9.63388C21.8995 9.8683 21.5815 10 21.25 10H18.75C18.4185 10 18.1005 9.8683 17.8661 9.63388C17.6317 9.39946 17.5 9.08152 17.5 8.75V6.25ZM26.25 5H28.75C29.0815 5 29.3995 5.1317 29.6339 5.36612C29.8683 5.60054 30 5.91848 30 6.25V8.75C30 9.08152 29.8683 9.39946 29.6339 9.63388C29.3995 9.8683 29.0815 10 28.75 10H26.25C25.9185 10 25.6005 9.8683 25.3661 9.63388C25.1317 9.39946 25 9.08152 25 8.75V6.25C25 5.91848 25.1317 5.60054 25.3661 5.36612C25.6005 5.1317 25.9185 5 26.25 5ZM10 13.75C10 13.4185 10.1317 13.1005 10.3661 12.8661C10.6005 12.6317 10.9185 12.5 11.25 12.5H13.75C14.0815 12.5 14.3995 12.6317 14.6339 12.8661C14.8683 13.1005 15 13.4185 15 13.75V16.25C15 16.5815 14.8683 16.8995 14.6339 17.1339C14.3995 17.3683 14.0815 17.5 13.75 17.5H11.25C10.9185 17.5 10.6005 17.3683 10.3661 17.1339C10.1317 16.8995 10 16.5815 10 16.25V13.75ZM18.75 12.5H21.25C21.5815 12.5 21.8995 12.6317 22.1339 12.8661C22.3683 13.1005 22.5 13.4185 22.5 13.75V16.25C22.5 16.5815 22.3683 16.8995 22.1339 17.1339C21.8995 17.3683 21.5815 17.5 21.25 17.5H18.75C18.4185 17.5 18.1005 17.3683 17.8661 17.1339C17.6317 16.8995 17.5 16.5815 17.5 16.25V13.75C17.5 13.4185 17.6317 13.1005 17.8661 12.8661C18.1005 12.6317 18.4185 12.5 18.75 12.5ZM25 13.75C25 13.4185 25.1317 13.1005 25.3661 12.8661C25.6005 12.6317 25.9185 12.5 26.25 12.5H28.75C29.0815 12.5 29.3995 12.6317 29.6339 12.8661C29.8683 13.1005 30 13.4185 30 13.75V16.25C30 16.5815 29.8683 16.8995 29.6339 17.1339C29.3995 17.3683 29.0815 17.5 28.75 17.5H26.25C25.9185 17.5 25.6005 17.3683 25.3661 17.1339C25.1317 16.8995 25 16.5815 25 16.25V13.75ZM11.25 20H13.75C14.0815 20 14.3995 20.1317 14.6339 20.3661C14.8683 20.6005 15 20.9185 15 21.25V23.75C15 24.0815 14.8683 24.3995 14.6339 24.6339C14.3995 24.8683 14.0815 25 13.75 25H11.25C10.9185 25 10.6005 24.8683 10.3661 24.6339C10.1317 24.3995 10 24.0815 10 23.75V21.25C10 20.9185 10.1317 20.6005 10.3661 20.3661C10.6005 20.1317 10.9185 20 11.25 20ZM17.5 21.25C17.5 20.9185 17.6317 20.6005 17.8661 20.3661C18.1005 20.1317 18.4185 20 18.75 20H21.25C21.5815 20 21.8995 20.1317 22.1339 20.3661C22.3683 20.6005 22.5 20.9185 22.5 21.25V23.75C22.5 24.0815 22.3683 24.3995 22.1339 24.6339C21.8995 24.8683 21.5815 25 21.25 25H18.75C18.4185 25 18.1005 24.8683 17.8661 24.6339C17.6317 24.3995 17.5 24.0815 17.5 23.75V21.25ZM26.25 20H28.75C29.0815 20 29.3995 20.1317 29.6339 20.3661C29.8683 20.6005 30 20.9185 30 21.25V23.75C30 24.0815 29.8683 24.3995 29.6339 24.6339C29.3995 24.8683 29.0815 25 28.75 25H26.25C25.9185 25 25.6005 24.8683 25.3661 24.6339C25.1317 24.3995 25 24.0815 25 23.75V21.25C25 20.9185 25.1317 20.6005 25.3661 20.3661C25.6005 20.1317 25.9185 20 26.25 20Z" fill="white"/>
</svg>
