<svg width="40" height="53" viewBox="0 0 40 53" fill="none" xmlns="http://www.w3.org/2000/svg">
<g clip-path="url(#clip0_361_1555)">
<path d="M39.2708 10.8691L29.0729 0.724609C28.6042 0.258789 27.9688 0 27.3021 0H26.6667V13.25H40V12.6186C40 11.9664 39.7396 11.335 39.2708 10.8691ZM23.3333 14.0781V0H2.5C1.11458 0 0 1.10762 0 2.48438V50.5156C0 51.8924 1.11458 53 2.5 53H37.5C38.8854 53 40 51.8924 40 50.5156V16.5625H25.8333C24.4583 16.5625 23.3333 15.4445 23.3333 14.0781ZM6.66667 7.45312C6.66667 6.99559 7.03958 6.625 7.5 6.625H15.8333C16.2937 6.625 16.6667 6.99559 16.6667 7.45312V9.10938C16.6667 9.56691 16.2937 9.9375 15.8333 9.9375H7.5C7.03958 9.9375 6.66667 9.56691 6.66667 9.10938V7.45312ZM6.66667 15.7344V14.0781C6.66667 13.6206 7.03958 13.25 7.5 13.25H15.8333C16.2937 13.25 16.6667 13.6206 16.6667 14.0781V15.7344C16.6667 16.1919 16.2937 16.5625 15.8333 16.5625H7.5C7.03958 16.5625 6.66667 16.1919 6.66667 15.7344ZM21.6667 43.0501V45.5469C21.6667 46.0044 21.2937 46.375 20.8333 46.375H19.1667C18.7062 46.375 18.3333 46.0044 18.3333 45.5469V43.0325C17.1573 42.9724 16.0135 42.5646 15.0656 41.8576C14.6594 41.5543 14.6385 40.9497 15.0062 40.6009L16.2302 39.4405C16.5187 39.1672 16.9479 39.1548 17.2854 39.3649C17.6885 39.6154 18.1458 39.75 18.6208 39.75H21.549C22.226 39.75 22.7781 39.1372 22.7781 38.3846C22.7781 37.7687 22.4021 37.2263 21.8646 37.0669L17.1771 35.6694C15.2406 35.0918 13.8875 33.2451 13.8875 31.1779C13.8875 28.6397 15.8719 26.5776 18.3323 26.5124V24.0156C18.3323 23.5581 18.7052 23.1875 19.1656 23.1875H20.8323C21.2927 23.1875 21.6656 23.5581 21.6656 24.0156V26.53C22.8417 26.5901 23.9854 26.9969 24.9333 27.7049C25.3396 28.0082 25.3604 28.6128 24.9927 28.9616L23.7687 30.122C23.4802 30.3953 23.051 30.4077 22.7135 30.1976C22.3104 29.946 21.8531 29.8125 21.3781 29.8125H18.45C17.7729 29.8125 17.2208 30.4253 17.2208 31.1779C17.2208 31.7938 17.5969 32.3362 18.1344 32.4956L22.8219 33.8931C24.7583 34.4707 26.1115 36.3174 26.1115 38.3846C26.1115 40.9239 24.1271 42.9849 21.6667 43.0501Z" fill="white"/>
</g>
<defs>
<clipPath id="clip0_361_1555">
<rect width="40" height="53" fill="white"/>
</clipPath>
</defs>
</svg>
