<svg width="40" height="36" viewBox="0 0 40 36" fill="none" xmlns="http://www.w3.org/2000/svg">
<g clip-path="url(#clip0_513_163)">
<path d="M20 -1.125C19.0764 -1.125 18.3333 -0.372656 18.3333 0.5625V1.40625H18.2083C15.6667 1.40625 13.6111 3.49453 13.6111 6.06094C13.6111 8.40938 15.3403 10.3922 17.6389 10.6805L21.875 11.2148C22.2292 11.257 22.5 11.5664 22.5 11.932C22.5 12.3328 22.1806 12.6492 21.7917 12.6492L16.6667 12.6562C15.5903 12.6562 14.7222 13.5352 14.7222 14.625C14.7222 15.7148 15.5903 16.5938 16.6667 16.5938H18.3333V17.4375C18.3333 18.3727 19.0764 19.125 20 19.125C20.9236 19.125 21.6667 18.3727 21.6667 17.4375V16.5938H21.7917C24.3333 16.5938 26.3889 14.5055 26.3889 11.9391C26.3889 9.59062 24.6597 7.60781 22.3611 7.31953L18.125 6.78516C17.7708 6.74297 17.5 6.43359 17.5 6.06797C17.5 5.66719 17.8194 5.35078 18.2083 5.35078L22.7778 5.34375C23.8542 5.34375 24.7222 4.46484 24.7222 3.375C24.7222 2.28516 23.8542 1.40625 22.7778 1.40625H21.6667V0.5625C21.6667 -0.372656 20.9236 -1.125 20 -1.125ZM7.59028 24.0117L4.63194 27H2.22222C0.993055 27 0 28.0055 0 29.25V33.75C0 34.9945 0.993055 36 2.22222 36H24.4792C26.4931 36 28.4583 35.3461 30.0833 34.1367L38.875 27.5766C40.1111 26.6555 40.375 24.8977 39.4653 23.6461C38.5556 22.3945 36.8194 22.1273 35.5833 23.0484L27.2639 29.25H19.4444C18.5208 29.25 17.7778 28.4977 17.7778 27.5625C17.7778 26.6273 18.5208 25.875 19.4444 25.875H24.4444C25.6736 25.875 26.6667 24.8695 26.6667 23.625C26.6667 22.3805 25.6736 21.375 24.4444 21.375H13.875C11.5208 21.375 9.25694 22.3242 7.59028 24.0117Z" fill="white"/>
</g>
<defs>
<clipPath id="clip0_513_163">
<rect width="40" height="36" fill="white"/>
</clipPath>
</defs>
</svg>
