<svg width="40" height="53" viewBox="0 0 40 53" fill="none" xmlns="http://www.w3.org/2000/svg">
<g clip-path="url(#clip0_435_462)">
<path d="M23.3333 14.0781V0H2.5C1.11458 0 0 1.10762 0 2.48438V50.5156C0 51.8924 1.11458 53 2.5 53H37.5C38.8854 53 40 51.8924 40 50.5156V16.5625H25.8333C24.4583 16.5625 23.3333 15.4445 23.3333 14.0781ZM30.1229 36.4385H23.3333V44.7198C23.3333 45.6349 22.5875 46.376 21.6667 46.376H18.3333C17.4125 46.376 16.6667 45.6349 16.6667 44.7198V36.4385H9.87708C8.38958 36.4385 7.64687 34.6488 8.70312 33.6063L18.7469 23.6999C19.4396 23.0157 20.5583 23.0157 21.251 23.6999L31.2948 33.6063C32.3521 34.6488 31.6104 36.4385 30.1229 36.4385ZM39.2708 10.8691L29.0729 0.724609C28.6042 0.258789 27.9688 0 27.3021 0H26.6667V13.25H40V12.6186C40 11.9664 39.7396 11.335 39.2708 10.8691Z" fill="white"/>
</g>
<defs>
<clipPath id="clip0_435_462">
<rect width="40" height="53" fill="white"/>
</clipPath>
</defs>
</svg>
