<svg width="22" height="22" viewBox="0 0 22 22" fill="none" xmlns="http://www.w3.org/2000/svg">
<g clip-path="url(#clip0_57_177)">
<path d="M0 2.75C0 1.2332 1.2332 0 2.75 0H9.625V5.5C9.625 6.26055 10.2395 6.875 11 6.875H16.5V13.0625H7.5625C6.0457 13.0625 4.8125 14.2957 4.8125 15.8125V22H2.75C1.2332 22 0 20.7668 0 19.25V2.75ZM16.5 5.5H11V0L16.5 5.5ZM7.5625 15.125H8.9375C10.2652 15.125 11.3438 16.2035 11.3438 17.5312C11.3438 18.859 10.2652 19.9375 8.9375 19.9375H8.25V21.3125C8.25 21.6906 7.94063 22 7.5625 22C7.18437 22 6.875 21.6906 6.875 21.3125V15.8125C6.875 15.4344 7.18437 15.125 7.5625 15.125ZM8.9375 18.5625C9.50898 18.5625 9.96875 18.1027 9.96875 17.5312C9.96875 16.9598 9.50898 16.5 8.9375 16.5H8.25V18.5625H8.9375ZM13.0625 15.125H14.4375C15.5762 15.125 16.5 16.0488 16.5 17.1875V19.9375C16.5 21.0762 15.5762 22 14.4375 22H13.0625C12.6844 22 12.375 21.6906 12.375 21.3125V15.8125C12.375 15.4344 12.6844 15.125 13.0625 15.125ZM14.4375 20.625C14.8156 20.625 15.125 20.3156 15.125 19.9375V17.1875C15.125 16.8094 14.8156 16.5 14.4375 16.5H13.75V20.625H14.4375ZM17.875 15.8125C17.875 15.4344 18.1844 15.125 18.5625 15.125H20.625C21.0031 15.125 21.3125 15.4344 21.3125 15.8125C21.3125 16.1906 21.0031 16.5 20.625 16.5H19.25V17.875H20.625C21.0031 17.875 21.3125 18.1844 21.3125 18.5625C21.3125 18.9406 21.0031 19.25 20.625 19.25H19.25V21.3125C19.25 21.6906 18.9406 22 18.5625 22C18.1844 22 17.875 21.6906 17.875 21.3125V15.8125Z" fill="black"/>
</g>
<defs>
<clipPath id="clip0_57_177">
<rect width="22" height="22" fill="white"/>
</clipPath>
</defs>
</svg>
