<svg width="16" height="21" viewBox="0 0 16 21" fill="none" xmlns="http://www.w3.org/2000/svg">
<g clip-path="url(#clip0_57_179)">
<path d="M2.66667 0C1.19583 0 0 1.17715 0 2.625V18.375C0 19.8229 1.19583 21 2.66667 21H13.3333C14.8042 21 16 19.8229 16 18.375V6.5625H10.6667C9.92917 6.5625 9.33333 5.97598 9.33333 5.25V0H2.66667ZM10.6667 0V5.25H16L10.6667 0ZM6.4875 10.2621L8 12.3908L9.5125 10.2621C9.82917 9.81504 10.4542 9.7084 10.9042 10.0201C11.3542 10.3318 11.4667 10.9471 11.15 11.39L9.22083 14.1094L11.1542 16.8246C11.4708 17.2717 11.3625 17.8828 10.9083 18.1945C10.4542 18.5063 9.83333 18.3996 9.51667 17.9525L8 15.8238L6.4875 17.9525C6.17083 18.3996 5.54583 18.5063 5.09583 18.1945C4.64583 17.8828 4.53333 17.2676 4.85 16.8246L6.77917 14.1094L4.84583 11.3941C4.52917 10.9471 4.6375 10.3359 5.09167 10.0242C5.54583 9.7125 6.16667 9.81914 6.48333 10.2662L6.4875 10.2621Z" fill="black"/>
</g>
<defs>
<clipPath id="clip0_57_179">
<rect width="16" height="21" fill="white"/>
</clipPath>
</defs>
</svg>
