<svg width="40" height="40" viewBox="0 0 40 40" fill="none" xmlns="http://www.w3.org/2000/svg">
<path d="M2.5 2.5C3.88281 2.5 5 3.61719 5 5V31.25C5 31.9375 5.5625 32.5 6.25 32.5H37.5C38.8828 32.5 40 33.6172 40 35C40 36.3828 38.8828 37.5 37.5 37.5H6.25C2.79688 37.5 0 34.7031 0 31.25V5C0 3.61719 1.11719 2.5 2.5 2.5ZM10 7.5C10 6.11719 11.1172 5 12.5 5H27.5C28.8828 5 30 6.11719 30 7.5C30 8.88281 28.8828 10 27.5 10H12.5C11.1172 10 10 8.88281 10 7.5ZM12.5 13.75H22.5C23.8828 13.75 25 14.8672 25 16.25C25 17.6328 23.8828 18.75 22.5 18.75H12.5C11.1172 18.75 10 17.6328 10 16.25C10 14.8672 11.1172 13.75 12.5 13.75ZM12.5 22.5H32.5C33.8828 22.5 35 23.6172 35 25C35 26.3828 33.8828 27.5 32.5 27.5H12.5C11.1172 27.5 10 26.3828 10 25C10 23.6172 11.1172 22.5 12.5 22.5Z" fill="white"/>
</svg>
