<svg width="25" height="25" viewBox="0 0 25 25" fill="none" xmlns="http://www.w3.org/2000/svg">
<path d="M21.1092 9.93025H15.0682V3.89075C15.0682 3.7706 15.0204 3.65539 14.9355 3.57042C14.8506 3.48544 14.7354 3.43763 14.6152 3.4375H10.384C10.2638 3.43757 10.1486 3.48535 10.0637 3.57034C9.97871 3.65534 9.93099 3.77058 9.93099 3.89075L9.93074 9.93075L3.89099 9.9305C3.65074 9.9305 3.43799 10.1432 3.43774 10.3837V14.615C3.43768 14.6745 3.44936 14.7335 3.47212 14.7885C3.49487 14.8435 3.52826 14.8935 3.57037 14.9356C3.61247 14.9776 3.66246 15.011 3.71748 15.0337C3.7725 15.0565 3.83147 15.0681 3.89099 15.068H9.93099V21.1092C9.93106 21.2294 9.97883 21.3447 10.0638 21.4297C10.1488 21.5147 10.2641 21.5624 10.3842 21.5625H14.615C14.6745 21.5625 14.7335 21.5508 14.7884 21.528C14.8434 21.5052 14.8934 21.4718 14.9355 21.4297C14.9776 21.3877 15.011 21.3377 15.0337 21.2827C15.0565 21.2277 15.0682 21.1688 15.0682 21.1092V15.0682L21.109 15.068C21.1685 15.0681 21.2275 15.0564 21.2826 15.0337C21.3376 15.011 21.3876 14.9776 21.4297 14.9355C21.4718 14.8934 21.5052 14.8434 21.5279 14.7883C21.5507 14.7333 21.5623 14.6743 21.5622 14.6147L21.5625 10.3835C21.5625 10.2633 21.5147 10.148 21.4297 10.063C21.3447 9.978 21.2295 9.93025 21.1092 9.93025Z" fill="white"/>
</svg>
