<svg width="35" height="47" viewBox="0 0 35 47" fill="none" xmlns="http://www.w3.org/2000/svg">
<g clip-path="url(#clip0_513_165)">
<path d="M20.4167 12.4844V0H2.1875C0.97526 0 0 0.982227 0 2.20312V44.7969C0 46.0178 0.97526 47 2.1875 47H32.8125C34.0247 47 35 46.0178 35 44.7969V14.6875H22.6042C21.401 14.6875 20.4167 13.6961 20.4167 12.4844ZM26.3576 32.3134H20.4167V39.6572C20.4167 40.4687 19.7641 41.1259 18.9583 41.1259H16.0417C15.2359 41.1259 14.5833 40.4687 14.5833 39.6572V32.3134H8.64245C7.34089 32.3134 6.69102 30.7262 7.61523 29.8019L16.4035 21.0169C17.0096 20.4101 17.9885 20.4101 18.5947 21.0169L27.3829 29.8019C28.3081 30.7262 27.6591 32.3134 26.3576 32.3134ZM34.362 9.63867L25.4388 0.642578C25.0286 0.229492 24.4727 0 23.8893 0H23.3333V11.75H35V11.19C35 10.6117 34.7721 10.0518 34.362 9.63867Z" fill="white"/>
</g>
<defs>
<clipPath id="clip0_513_165">
<rect width="35" height="47" fill="white"/>
</clipPath>
</defs>
</svg>
