<svg width="35" height="35" viewBox="0 0 35 35" fill="none" xmlns="http://www.w3.org/2000/svg">
<path d="M2.1875 2.1875C3.39746 2.1875 4.375 3.16504 4.375 4.375V27.3438C4.375 27.9453 4.86719 28.4375 5.46875 28.4375H32.8125C34.0225 28.4375 35 29.415 35 30.625C35 31.835 34.0225 32.8125 32.8125 32.8125H5.46875C2.44727 32.8125 0 30.3652 0 27.3438V4.375C0 3.16504 0.977539 2.1875 2.1875 2.1875ZM8.75 6.5625C8.75 5.35254 9.72754 4.375 10.9375 4.375H24.0625C25.2725 4.375 26.25 5.35254 26.25 6.5625C26.25 7.77246 25.2725 8.75 24.0625 8.75H10.9375C9.72754 8.75 8.75 7.77246 8.75 6.5625ZM10.9375 12.0312H19.6875C20.8975 12.0312 21.875 13.0088 21.875 14.2188C21.875 15.4287 20.8975 16.4062 19.6875 16.4062H10.9375C9.72754 16.4062 8.75 15.4287 8.75 14.2188C8.75 13.0088 9.72754 12.0312 10.9375 12.0312ZM10.9375 19.6875H28.4375C29.6475 19.6875 30.625 20.665 30.625 21.875C30.625 23.085 29.6475 24.0625 28.4375 24.0625H10.9375C9.72754 24.0625 8.75 23.085 8.75 21.875C8.75 20.665 9.72754 19.6875 10.9375 19.6875Z" fill="white"/>
</svg>
