<svg width="16" height="16" viewBox="0 0 16 16" fill="none" xmlns="http://www.w3.org/2000/svg">
<g id="fad:filter-notch">
<path id="Vector" fill-rule="evenodd" clip-rule="evenodd" d="M1.56885 4.85191C1.56885 4.91824 1.59514 4.98186 1.64197 5.02884C1.68879 5.07582 1.75233 5.10232 1.81866 5.10253H2.88091C3.29541 5.10253 3.75135 5.41566 3.89966 5.80266L7.19491 11.1296C7.6396 12.2898 8.36322 12.2903 8.81097 11.1312L12.1194 5.80266C12.2688 5.41597 12.7252 5.10253 13.1404 5.10253H14.171C14.2374 5.10237 14.301 5.07589 14.3478 5.0289C14.3947 4.98192 14.421 4.91827 14.421 4.85191V4.30141C14.4211 4.26856 14.4147 4.23602 14.4022 4.20565C14.3897 4.17528 14.3713 4.14767 14.3481 4.1244C14.325 4.10113 14.2974 4.08266 14.2671 4.07004C14.2368 4.05741 14.2043 4.05089 14.1714 4.05084H12.7022C12.15 4.05084 11.543 4.46972 11.3465 4.98597L8.39985 9.60172C8.17904 10.1822 7.82379 10.1806 7.60647 9.59853L4.70004 4.98797C4.50679 4.47041 3.90253 4.05078 3.35004 4.05078H1.81941C1.75296 4.05081 1.68925 4.07723 1.64227 4.12423C1.5953 4.17123 1.56891 4.23496 1.56891 4.30141L1.56885 4.85191Z" fill="black"/>
</g>
</svg>
